<svg width="3807" height="6242" viewBox="0 0 3807 6242" fill="none" xmlns="http://www.w3.org/2000/svg">
<rect width="3807" height="6242" fill="#0061F9"/>
<g filter="url(#filter0_d_2822_105)">
<rect x="331.5" y="402.5" width="3195" height="5473" stroke="white" stroke-width="25" shape-rendering="crispEdges"/>
</g>
<path d="M341 3105L3529 3111" stroke="white" stroke-width="37"/>
<rect x="1496.5" y="5877.5" width="896" height="212" stroke="white" stroke-width="25"/>
<rect x="1476.5" y="187.5" width="896" height="212" stroke="white" stroke-width="25"/>
<path d="M1691 4953.5H2166C2677.94 4953.5 3093.73 5365.15 3100.42 5875.5H756.582C763.272 5365.15 1179.06 4953.5 1691 4953.5Z" fill="#FFA708" stroke="white" stroke-width="25"/>
<path d="M3573.32 5734.31C3577.16 5768.07 3579.74 5802.19 3581.04 5836.63L3568.55 5837.1C3569.02 5849.86 3569.32 5862.66 3569.44 5875.5H3530.48V5888H3427.45V5875.5H3324.42V5888H3221.39V5875.5H3118.36V5888H3015.33V5875.5H2912.3V5888H2809.27V5875.5H2706.23V5888H2603.2V5875.5H2500.17V5888H2397.14V5875.5H2294.11V5888H2191.08V5875.5H2088.05V5888H1985.02V5875.5H1881.98V5888H1778.95V5875.5H1675.92V5888H1572.89V5875.5H1469.86V5888H1366.83V5875.5H1263.8V5888H1160.77V5875.5H1057.73V5888H954.703V5875.5H851.672V5888H748.641V5875.5H645.609V5888H542.578V5875.5H439.547V5888H336.516V5875.5H297.558C297.676 5862.66 297.975 5849.86 298.454 5837.11L285.963 5836.64C287.205 5803.56 289.641 5770.78 293.231 5738.33L293.681 5734.33L306.101 5735.74C309.952 5701.87 315.072 5668.37 321.414 5635.29L309.138 5632.94C315.615 5599.16 323.356 5565.82 332.309 5532.97L344.368 5536.26C353.314 5503.43 363.481 5471.1 374.82 5439.32L363.047 5435.12C374.583 5402.79 387.322 5371.02 401.208 5339.87L412.625 5344.96C426.457 5313.93 441.438 5283.51 457.519 5253.77L446.523 5247.83C462.822 5217.68 480.238 5188.23 498.717 5159.51L509.228 5166.28C527.591 5137.74 547.014 5109.94 567.443 5082.94L557.476 5075.4C577.4 5049.07 598.273 5023.49 620.044 4998.71L622.433 4995.99L631.802 5004.27C654.241 4978.87 677.635 4954.32 701.932 4930.69L693.216 4921.72C717.724 4897.89 743.141 4874.97 769.413 4853.03L777.425 4862.62C803.413 4840.92 830.244 4820.19 857.865 4800.47L850.604 4790.3C878.399 4770.46 906.987 4751.65 936.313 4733.92L942.779 4744.62C971.712 4727.13 1001.37 4710.71 1031.7 4695.4L1026.07 4684.24C1056.52 4668.88 1087.64 4654.63 1119.38 4641.55L1119.38 4641.55L1124.14 4653.11C1155.34 4640.26 1187.15 4628.55 1219.5 4618.04L1215.64 4606.15C1248.02 4595.63 1280.95 4586.3 1314.38 4578.2L1317.32 4590.35C1350.05 4582.43 1383.27 4575.71 1416.92 4570.23L1414.92 4557.89C1448.44 4552.44 1482.4 4548.22 1516.73 4545.27L1517.8 4557.73C1534.64 4556.28 1551.57 4555.15 1568.59 4554.33L1614.98 4552.1L1614.38 4539.61L1614.38 4539.61L1707.17 4535.15L1707.17 4535.15L1707.77 4547.64L1800.56 4543.18L1799.96 4530.69L1892.75 4526.23L1893.35 4538.72L1939.14 4536.51L1983.53 4538.66L1984.13 4526.18L2074.1 4530.53L2073.5 4543.02L2163.47 4547.37L2164.08 4534.89L2254.05 4539.24V4539.24L2253.44 4551.73L2298.43 4553.91C2315.45 4554.73 2332.38 4555.87 2349.22 4557.32L2350.29 4544.87C2384.63 4547.82 2418.59 4552.06 2452.12 4557.52L2450.11 4569.86C2483.76 4575.34 2516.98 4582.08 2549.71 4590.01L2552.66 4577.86C2586.09 4585.97 2619.02 4595.31 2651.4 4605.84L2647.54 4617.73C2679.89 4628.25 2711.7 4639.97 2742.9 4652.83L2747.66 4641.27V4641.27C2779.4 4654.35 2810.52 4668.61 2840.97 4683.99L2835.34 4695.15C2865.67 4710.46 2895.33 4726.9 2924.26 4744.39L2930.73 4733.7C2960.05 4751.44 2988.64 4770.25 3016.43 4790.1L3009.17 4800.27C3036.79 4819.99 3063.62 4840.73 3089.61 4862.44L3097.62 4852.85C3123.89 4874.8 3149.31 4897.72 3173.82 4921.57L3165.1 4930.53C3189.39 4954.17 3212.79 4978.72 3235.23 5004.13L3244.59 4995.86C3267.23 5021.49 3288.9 5047.98 3309.55 5075.28L3299.58 5082.82C3320.01 5109.83 3339.43 5137.63 3357.79 5166.17L3368.3 5159.41C3386.78 5188.13 3404.19 5217.59 3420.49 5247.74L3409.5 5253.69C3425.57 5283.43 3440.56 5313.85 3454.39 5344.89L3465.8 5339.8C3479.69 5370.96 3492.42 5402.73 3503.96 5435.07H3503.96L3492.19 5439.27C3503.52 5471.05 3513.69 5503.39 3522.64 5536.21L3534.7 5532.93C3543.65 5565.78 3551.39 5599.12 3557.86 5632.91L3545.59 5635.26C3551.93 5668.34 3557.05 5701.84 3560.9 5735.72L3573.32 5734.31Z" stroke="white" stroke-width="25" stroke-dasharray="100 100"/>
<rect x="3539" y="5546" width="142" height="364" fill="#0061F9"/>
<rect x="177" y="5524" width="142" height="364" fill="#0061F9"/>
<path d="M1784.5 4752H2074" stroke="white" stroke-width="25"/>
<path d="M1784 5288H2073.5" stroke="white" stroke-width="25"/>
<path d="M1689 1324.5H2164C2675.94 1324.5 3091.73 912.848 3098.42 402.5H754.582C761.272 912.849 1177.06 1324.5 1689 1324.5Z" fill="#FFA708" stroke="white" stroke-width="25"/>
<path d="M3571.32 543.687C3575.16 509.932 3577.74 475.81 3579.04 441.368L3566.55 440.899C3567.02 428.143 3567.32 415.343 3567.44 402.5H3528.48V390H3425.45V402.5H3322.42V390H3219.39V402.5H3116.36V390H3013.33V402.5H2910.3V390H2807.27V402.5H2704.23V390H2601.2V402.5H2498.17V390H2395.14V402.5H2292.11V390H2189.08V402.5H2086.05V390H1983.02V402.5H1879.98V390H1776.95V402.5H1673.92V390H1570.89V402.5H1467.86V390H1364.83V402.5H1261.8V390H1158.77V402.5H1055.73V390H952.703V402.5H849.672V390H746.641V402.5H643.609V390H540.578V402.5H437.547V390H334.516V402.5H295.558C295.676 415.341 295.975 428.139 296.454 440.894L283.963 441.362C285.205 474.441 287.641 507.224 291.231 539.669L291.681 543.669L304.101 542.257C307.952 576.133 313.072 609.633 319.414 642.708L307.138 645.062C313.615 678.842 321.356 712.182 330.309 745.031L342.368 741.744C351.314 774.567 361.481 806.897 372.82 838.677L361.047 842.877C372.583 875.21 385.322 906.98 399.208 938.133L410.625 933.044C424.457 964.074 439.438 994.487 455.519 1024.23L444.523 1030.17C460.822 1060.32 478.238 1089.77 496.717 1118.49L507.228 1111.72C525.591 1140.26 545.014 1168.06 565.443 1195.06L555.476 1202.6C575.4 1228.93 596.273 1254.51 618.044 1279.29L620.433 1282.01L629.802 1273.73C652.241 1299.13 675.635 1323.68 699.932 1347.31L691.216 1356.28C715.724 1380.11 741.141 1403.03 767.413 1424.97L775.425 1415.38C801.413 1437.08 828.244 1457.81 855.865 1477.53L848.604 1487.7C876.399 1507.54 904.987 1526.35 934.313 1544.08L940.779 1533.38C969.712 1550.87 999.37 1567.29 1029.7 1582.6L1024.07 1593.76C1054.52 1609.12 1085.64 1623.37 1117.38 1636.45L1117.38 1636.45L1122.14 1624.89C1153.34 1637.74 1185.15 1649.45 1217.5 1659.96L1213.64 1671.85C1246.02 1682.37 1278.95 1691.7 1312.38 1699.8L1315.32 1687.65C1348.05 1695.57 1381.27 1702.29 1414.92 1707.77L1412.92 1720.11C1446.44 1725.56 1480.4 1729.78 1514.73 1732.73L1515.8 1720.27C1532.64 1721.72 1549.57 1722.85 1566.59 1723.67L1612.98 1725.9L1612.38 1738.39L1612.38 1738.39L1705.17 1742.85L1705.17 1742.85L1705.77 1730.36L1798.56 1734.82L1797.96 1747.31L1890.75 1751.77L1891.35 1739.28L1937.14 1741.49L1981.53 1739.34L1982.13 1751.82L2072.1 1747.47L2071.5 1734.98L2161.47 1730.63L2162.08 1743.11L2252.05 1738.76V1738.76L2251.44 1726.27L2296.43 1724.09C2313.45 1723.27 2330.38 1722.13 2347.22 1720.68L2348.29 1733.13C2382.63 1730.18 2416.59 1725.94 2450.12 1720.48L2448.11 1708.14C2481.76 1702.66 2514.98 1695.92 2547.71 1687.99L2550.66 1700.14C2584.09 1692.03 2617.02 1682.69 2649.4 1672.16L2645.54 1660.27C2677.89 1649.75 2709.7 1638.03 2740.9 1625.17L2745.66 1636.73V1636.73C2777.4 1623.65 2808.52 1609.39 2838.97 1594.01L2833.34 1582.85C2863.67 1567.54 2893.33 1551.1 2922.26 1533.61L2928.73 1544.3C2958.05 1526.56 2986.64 1507.75 3014.43 1487.9L3007.17 1477.73C3034.79 1458.01 3061.62 1437.27 3087.61 1415.56L3095.62 1425.15C3121.89 1403.2 3147.31 1380.28 3171.82 1356.43L3163.1 1347.47C3187.39 1323.83 3210.79 1299.28 3233.23 1273.87L3242.59 1282.14C3265.23 1256.51 3286.9 1230.02 3307.55 1202.72L3297.58 1195.18C3318.01 1168.17 3337.43 1140.37 3355.79 1111.83L3366.3 1118.59C3384.78 1089.87 3402.19 1060.41 3418.49 1030.26L3407.5 1024.31C3423.57 994.568 3438.56 964.15 3452.39 933.114L3463.8 938.202C3477.69 907.044 3490.42 875.27 3501.96 842.933H3501.96L3490.19 838.732C3501.52 806.948 3511.69 774.615 3520.64 741.787L3532.7 745.073C3541.65 712.22 3549.39 678.876 3555.86 645.093L3543.59 642.739C3549.93 609.66 3555.05 576.155 3558.9 542.275L3571.32 543.687Z" stroke="white" stroke-width="25" stroke-dasharray="100 100"/>
<rect width="142" height="364" transform="matrix(1 0 0 -1 3537 732)" fill="#0061F9"/>
<rect width="142" height="364" transform="matrix(1 0 0 -1 177 729)" fill="#0061F9"/>
<path d="M1785.5 1526H2075" stroke="white" stroke-width="25"/>
<path d="M1785 990H2074.5" stroke="white" stroke-width="25"/>
<circle cx="1935" cy="3105" r="286" fill="white"/>
<circle cx="1935" cy="3121" r="73.5" fill="white" stroke="#0061F9" stroke-width="3"/>
<defs>
<filter id="filter0_d_2822_105" x="315" y="390" width="3228" height="5506" filterUnits="userSpaceOnUse" color-interpolation-filters="sRGB">
<feFlood flood-opacity="0" result="BackgroundImageFix"/>
<feColorMatrix in="SourceAlpha" type="matrix" values="0 0 0 0 0 0 0 0 0 0 0 0 0 0 0 0 0 0 127 0" result="hardAlpha"/>
<feOffset dy="4"/>
<feGaussianBlur stdDeviation="2"/>
<feComposite in2="hardAlpha" operator="out"/>
<feColorMatrix type="matrix" values="0 0 0 0 0 0 0 0 0 0 0 0 0 0 0 0 0 0 0.25 0"/>
<feBlend mode="normal" in2="BackgroundImageFix" result="effect1_dropShadow_2822_105"/>
<feBlend mode="normal" in="SourceGraphic" in2="effect1_dropShadow_2822_105" result="shape"/>
</filter>
</defs>
</svg>
