<svg width="927" height="575" viewBox="0 0 927 575" fill="none" xmlns="http://www.w3.org/2000/svg">
<path d="M796.328 575V530.057V130.06H130.059V575" stroke="#050C58" stroke-width="22.8175"/>
<rect x="142.035" y="142.038" width="213.343" height="141.468" fill="white" stroke="black" stroke-width="1.14087"/>
<rect x="356.52" y="142.038" width="213.343" height="141.468" fill="white" stroke="black" stroke-width="1.14087"/>
<rect x="571.004" y="142.038" width="213.343" height="141.468" fill="white" stroke="black" stroke-width="1.14087"/>
<rect x="142.035" y="284.648" width="213.343" height="147.173" fill="white" stroke="black" stroke-width="1.14087"/>
<rect x="356.52" y="284.648" width="213.343" height="147.173" fill="white" stroke="black" stroke-width="1.14087"/>
<rect x="571.004" y="284.648" width="213.343" height="147.173" fill="white" stroke="black" stroke-width="1.14087"/>
<rect x="142.035" y="432.961" width="213.343" height="141.468" fill="white" stroke="black" stroke-width="1.14087"/>
<rect x="356.52" y="432.961" width="213.343" height="141.468" fill="white" stroke="black" stroke-width="1.14087"/>
<rect x="571.004" y="432.961" width="213.343" height="141.468" fill="white" stroke="black" stroke-width="1.14087"/>
<rect x="785.492" y="533.359" width="21.6766" height="41.0714" fill="white" stroke="black" stroke-width="1.14087"/>
<rect x="785.492" y="445.511" width="21.6766" height="41.0714" fill="white" stroke="black" stroke-width="1.14087"/>
<rect x="785.492" y="361.086" width="21.6766" height="41.0714" fill="white" stroke="black" stroke-width="1.14087"/>
<rect x="785.492" y="276.661" width="21.6766" height="41.0714" fill="white" stroke="black" stroke-width="1.14087"/>
<rect x="785.492" y="192.237" width="21.6766" height="41.0714" fill="white" stroke="black" stroke-width="1.14087"/>
<rect x="119.219" y="533.359" width="21.6766" height="41.0714" fill="white" stroke="black" stroke-width="1.14087"/>
<rect x="119.219" y="445.511" width="21.6766" height="41.0714" fill="white" stroke="black" stroke-width="1.14087"/>
<rect x="119.219" y="361.086" width="21.6766" height="41.0714" fill="white" stroke="black" stroke-width="1.14087"/>
<rect x="119.219" y="276.661" width="21.6766" height="41.0714" fill="white" stroke="black" stroke-width="1.14087"/>
<rect x="119.219" y="192.237" width="21.6766" height="41.0714" fill="white" stroke="black" stroke-width="1.14087"/>
<rect x="185.391" y="119.221" width="46.7758" height="21.6766" fill="white" stroke="black" stroke-width="1.14087"/>
<rect x="268.676" y="119.221" width="46.7758" height="21.6766" fill="white" stroke="black" stroke-width="1.14087"/>
<rect x="351.961" y="119.221" width="46.7758" height="21.6766" fill="white" stroke="black" stroke-width="1.14087"/>
<rect x="435.242" y="119.221" width="46.7758" height="21.6766" fill="white" stroke="black" stroke-width="1.14087"/>
<rect x="518.527" y="119.221" width="46.7758" height="21.6766" fill="white" stroke="black" stroke-width="1.14087"/>
<rect x="601.809" y="119.221" width="46.7758" height="21.6766" fill="white" stroke="black" stroke-width="1.14087"/>
<rect x="685.094" y="119.221" width="46.7758" height="21.6766" fill="white" stroke="black" stroke-width="1.14087"/>
<rect x="119.219" y="0.570437" width="687.946" height="117.51" fill="#D2D2D2" stroke="black" stroke-width="1.14087"/>
<rect x="-0.570437" y="0.570437" width="117.51" height="455.208" transform="matrix(-1 0 0 1 117.508 118.65)" fill="#D2D2D2" stroke="black" stroke-width="1.14087"/>
<rect x="-0.570437" y="0.570437" width="117.51" height="455.208" transform="matrix(-1 0 0 1 925.25 118.65)" fill="#D2D2D2" stroke="black" stroke-width="1.14087"/>
<path d="M246.296 193.431V233.258H241.473V198.487H241.24L231.517 204.943V200.043L241.473 193.431H246.296Z" fill="#052958ff"/>
<path d="M47.1173 342.885V382.712H39.9026V349.905H39.6692L30.3543 355.856V349.244L40.2526 342.885H47.1173ZM71.9507 383.47C68.7485 383.47 66.0001 382.66 63.7053 381.039C61.4236 379.406 59.6669 377.053 58.4353 373.98C57.2166 370.895 56.6073 367.18 56.6073 362.837C56.6203 358.494 57.2361 354.799 58.4547 351.753C59.6864 348.693 61.443 346.36 63.7248 344.752C66.0195 343.144 68.7615 342.341 71.9507 342.341C75.14 342.341 77.882 343.144 80.1767 344.752C82.4714 346.36 84.2281 348.693 85.4468 351.753C86.6784 354.812 87.2942 358.507 87.2942 362.837C87.2942 367.193 86.6784 370.914 85.4468 374C84.2281 377.072 82.4714 379.419 80.1767 381.039C77.895 382.66 75.153 383.47 71.9507 383.47ZM71.9507 377.384C74.4399 377.384 76.404 376.158 77.8431 373.708C79.2951 371.245 80.0211 367.621 80.0211 362.837C80.0211 359.674 79.6905 357.016 79.0293 354.864C78.3682 352.712 77.4347 351.092 76.229 350.003C75.0233 348.901 73.5972 348.35 71.9507 348.35C69.4745 348.35 67.5169 349.581 66.0778 352.044C64.6388 354.495 63.9128 358.092 63.8998 362.837C63.8868 366.014 64.2045 368.684 64.8527 370.849C65.5139 373.014 66.4473 374.648 67.653 375.75C68.8587 376.839 70.2913 377.384 71.9507 377.384Z" fill="#7B0101"/>
<path d="M459.776 79.9987C456.574 79.9987 453.825 79.1884 451.531 77.5678C449.249 75.9343 447.492 73.5812 446.261 70.5087C445.042 67.4231 444.433 63.7088 444.433 59.3657C444.446 55.0226 445.061 51.3277 446.28 48.2811C447.512 45.2215 449.268 42.8879 451.55 41.2803C453.845 39.6727 456.587 38.8689 459.776 38.8689C462.965 38.8689 465.707 39.6727 468.002 41.2803C470.297 42.8879 472.053 45.2215 473.272 48.2811C474.504 51.3407 475.12 55.0356 475.12 59.3657C475.12 63.7218 474.504 67.4426 473.272 70.5281C472.053 73.6007 470.297 75.9473 468.002 77.5678C465.72 79.1884 462.978 79.9987 459.776 79.9987ZM459.776 73.9118C462.265 73.9118 464.229 72.6867 465.668 70.2364C467.12 67.7732 467.846 64.1496 467.846 59.3657C467.846 56.2024 467.516 53.5447 466.855 51.3926C466.193 49.2405 465.26 47.6199 464.054 46.5309C462.849 45.4289 461.423 44.8779 459.776 44.8779C457.3 44.8779 455.342 46.1095 453.903 48.5728C452.464 51.0231 451.738 54.6207 451.725 59.3657C451.712 62.542 452.03 65.2127 452.678 67.3777C453.339 69.5428 454.273 71.1763 455.478 72.2783C456.684 73.3673 458.117 73.9118 459.776 73.9118Z" fill="#7B0101"/>
<path d="M854.852 342.885V382.712H847.637V349.905H847.404L838.089 355.856V349.244L847.987 342.885H854.852ZM881.163 342.885V382.712H873.948V349.905H873.715L864.4 355.856V349.244L874.298 342.885H881.163Z" fill="#7B0101"/>
<path d="M453.623 233.258V229.757L466.769 215.367C468.311 213.681 469.582 212.216 470.58 210.972C471.578 209.714 472.317 208.535 472.797 207.433C473.29 206.318 473.536 205.151 473.536 203.932C473.536 202.532 473.199 201.32 472.525 200.296C471.864 199.271 470.956 198.481 469.802 197.923C468.649 197.366 467.352 197.087 465.913 197.087C464.383 197.087 463.048 197.405 461.907 198.04C460.779 198.662 459.904 199.537 459.282 200.665C458.672 201.793 458.368 203.115 458.368 204.632H453.778C453.778 202.299 454.316 200.25 455.392 198.487C456.468 196.724 457.933 195.35 459.787 194.364C461.654 193.379 463.748 192.886 466.069 192.886C468.402 192.886 470.47 193.379 472.272 194.364C474.074 195.35 475.487 196.679 476.511 198.351C477.536 200.023 478.048 201.884 478.048 203.932C478.048 205.397 477.782 206.83 477.25 208.23C476.732 209.617 475.824 211.166 474.528 212.878C473.244 214.576 471.462 216.65 469.18 219.101L460.235 228.668V228.98H478.748V233.258H453.623Z" fill="#050C58"/>
<path d="M681.564 234.943C678.997 234.943 676.709 234.502 674.7 233.621C672.703 232.739 671.115 231.514 669.935 229.945C668.768 228.363 668.133 226.529 668.029 224.442H672.93C673.034 225.725 673.474 226.834 674.252 227.767C675.03 228.688 676.048 229.401 677.305 229.906C678.563 230.412 679.957 230.665 681.486 230.665C683.198 230.665 684.715 230.366 686.037 229.77C687.359 229.174 688.396 228.344 689.148 227.281C689.9 226.218 690.276 224.986 690.276 223.586C690.276 222.121 689.913 220.831 689.187 219.716C688.461 218.588 687.398 217.707 685.998 217.071C684.598 216.436 682.887 216.119 680.864 216.119H677.675V211.84H680.864C682.446 211.84 683.833 211.555 685.026 210.985C686.231 210.414 687.171 209.61 687.845 208.573C688.533 207.536 688.876 206.317 688.876 204.917C688.876 203.569 688.578 202.396 687.982 201.397C687.385 200.399 686.543 199.621 685.454 199.064C684.377 198.506 683.107 198.228 681.642 198.228C680.268 198.228 678.971 198.48 677.753 198.986C676.547 199.479 675.562 200.198 674.797 201.145C674.032 202.078 673.617 203.206 673.552 204.528H668.885C668.963 202.441 669.592 200.613 670.771 199.044C671.951 197.463 673.494 196.231 675.4 195.349C677.318 194.468 679.425 194.027 681.72 194.027C684.183 194.027 686.296 194.526 688.059 195.524C689.823 196.51 691.177 197.813 692.124 199.433C693.07 201.054 693.543 202.804 693.543 204.684C693.543 206.927 692.953 208.839 691.774 210.421C690.607 212.002 689.019 213.098 687.009 213.707V214.018C689.524 214.433 691.488 215.503 692.902 217.227C694.315 218.938 695.021 221.058 695.021 223.586C695.021 225.751 694.431 227.696 693.252 229.42C692.085 231.131 690.49 232.48 688.468 233.465C686.445 234.45 684.144 234.943 681.564 234.943Z" fill="#050C58"/>
<path d="M231.361 373.404V369.437L248.863 341.744H251.741V347.89H249.797L236.573 368.814V369.125H260.142V373.404H231.361ZM250.108 381.571V372.198V370.351V341.744H254.697V381.571H250.108Z" fill="#050C58"/>
<path d="M466.069 382.116C463.787 382.116 461.732 381.662 459.904 380.755C458.076 379.847 456.611 378.602 455.509 377.021C454.407 375.439 453.804 373.637 453.7 371.615H458.368C458.549 373.417 459.366 374.908 460.818 376.087C462.283 377.254 464.033 377.838 466.069 377.838C467.702 377.838 469.154 377.455 470.425 376.69C471.708 375.925 472.713 374.875 473.439 373.54C474.178 372.191 474.547 370.668 474.547 368.97C474.547 367.233 474.165 365.683 473.4 364.322C472.648 362.948 471.611 361.865 470.289 361.074C468.966 360.284 467.456 359.882 465.757 359.869C464.539 359.856 463.288 360.044 462.004 360.433C460.721 360.809 459.664 361.295 458.834 361.891L454.323 361.347L456.734 341.744H477.425V346.023H460.779L459.379 357.769H459.612C460.429 357.12 461.453 356.582 462.685 356.154C463.916 355.727 465.2 355.513 466.535 355.513C468.973 355.513 471.144 356.096 473.05 357.263C474.969 358.417 476.473 359.998 477.562 362.008C478.664 364.017 479.215 366.312 479.215 368.892C479.215 371.433 478.644 373.702 477.503 375.698C476.375 377.682 474.82 379.251 472.836 380.404C470.852 381.545 468.597 382.116 466.069 382.116Z" fill="#050C58"/>
<path d="M681.331 383.256C679.697 383.23 678.064 382.919 676.43 382.323C674.797 381.727 673.306 380.722 671.958 379.309C670.609 377.883 669.527 375.957 668.71 373.533C667.893 371.096 667.485 368.036 667.485 364.354C667.485 360.828 667.815 357.703 668.477 354.981C669.138 352.245 670.097 349.944 671.355 348.077C672.612 346.197 674.129 344.771 675.905 343.799C677.694 342.827 679.71 342.341 681.953 342.341C684.183 342.341 686.167 342.788 687.904 343.682C689.654 344.564 691.08 345.796 692.182 347.377C693.284 348.959 693.997 350.78 694.321 352.842H689.576C689.135 351.053 688.28 349.568 687.009 348.388C685.739 347.209 684.053 346.619 681.953 346.619C678.868 346.619 676.437 347.961 674.661 350.644C672.897 353.328 672.009 357.094 671.996 361.943H672.308C673.034 360.841 673.896 359.901 674.894 359.123C675.905 358.332 677.02 357.723 678.239 357.295C679.457 356.867 680.747 356.653 682.109 356.653C684.39 356.653 686.478 357.224 688.371 358.365C690.263 359.493 691.78 361.055 692.921 363.051C694.062 365.035 694.632 367.31 694.632 369.877C694.632 372.34 694.081 374.596 692.979 376.645C691.877 378.68 690.328 380.301 688.332 381.506C686.348 382.699 684.014 383.282 681.331 383.256ZM681.331 378.978C682.964 378.978 684.429 378.57 685.726 377.753C687.035 376.936 688.066 375.841 688.818 374.467C689.583 373.092 689.965 371.562 689.965 369.877C689.965 368.231 689.596 366.733 688.857 365.385C688.131 364.024 687.126 362.941 685.842 362.137C684.572 361.334 683.12 360.932 681.486 360.932C680.255 360.932 679.107 361.178 678.044 361.671C676.981 362.15 676.048 362.811 675.244 363.654C674.453 364.497 673.831 365.463 673.377 366.552C672.923 367.628 672.696 368.762 672.696 369.955C672.696 371.537 673.066 373.014 673.805 374.389C674.557 375.763 675.581 376.871 676.878 377.714C678.187 378.557 679.671 378.978 681.331 378.978Z" fill="#050C58"/>
<path d="M233.539 523.04L251.352 487.803V487.491H230.817V483.213H256.331V487.725L238.595 523.04H233.539Z" fill="#050C58"/>
<path d="M466.38 523.585C463.709 523.585 461.35 523.111 459.301 522.165C457.266 521.206 455.678 519.89 454.537 518.217C453.396 516.532 452.832 514.613 452.845 512.461C452.832 510.776 453.162 509.22 453.837 507.794C454.511 506.355 455.431 505.156 456.598 504.196C457.778 503.224 459.094 502.608 460.546 502.349V502.115C458.64 501.623 457.123 500.553 455.995 498.907C454.867 497.247 454.31 495.361 454.323 493.248C454.31 491.225 454.822 489.417 455.859 487.822C456.896 486.227 458.322 484.97 460.137 484.049C461.965 483.129 464.046 482.669 466.38 482.669C468.687 482.669 470.749 483.129 472.564 484.049C474.379 484.97 475.805 486.227 476.842 487.822C477.892 489.417 478.424 491.225 478.437 493.248C478.424 495.361 477.847 497.247 476.706 498.907C475.578 500.553 474.081 501.623 472.214 502.115V502.349C473.653 502.608 474.949 503.224 476.103 504.196C477.257 505.156 478.177 506.355 478.865 507.794C479.552 509.22 479.902 510.776 479.915 512.461C479.902 514.613 479.318 516.532 478.164 518.217C477.024 519.89 475.435 521.206 473.4 522.165C471.378 523.111 469.037 523.585 466.38 523.585ZM466.38 519.306C468.182 519.306 469.738 519.015 471.047 518.431C472.356 517.848 473.368 517.025 474.081 515.961C474.794 514.898 475.157 513.654 475.17 512.228C475.157 510.724 474.768 509.395 474.003 508.241C473.238 507.087 472.194 506.18 470.872 505.519C469.563 504.857 468.065 504.527 466.38 504.527C464.681 504.527 463.165 504.857 461.829 505.519C460.507 506.18 459.463 507.087 458.698 508.241C457.946 509.395 457.577 510.724 457.59 512.228C457.577 513.654 457.92 514.898 458.621 515.961C459.334 517.025 460.351 517.848 461.674 518.431C462.996 519.015 464.565 519.306 466.38 519.306ZM466.38 500.404C467.806 500.404 469.07 500.119 470.172 499.548C471.287 498.978 472.162 498.181 472.797 497.156C473.432 496.132 473.757 494.933 473.769 493.559C473.757 492.211 473.439 491.037 472.817 490.039C472.194 489.028 471.332 488.25 470.23 487.705C469.128 487.148 467.845 486.869 466.38 486.869C464.889 486.869 463.586 487.148 462.471 487.705C461.356 488.25 460.494 489.028 459.885 490.039C459.275 491.037 458.977 492.211 458.99 493.559C458.977 494.933 459.282 496.132 459.904 497.156C460.539 498.181 461.414 498.978 462.529 499.548C463.644 500.119 464.928 500.404 466.38 500.404Z" fill="#050C58"/>
<path d="M680.786 483.809C682.42 483.822 684.053 484.133 685.687 484.743C687.32 485.352 688.811 486.363 690.16 487.776C691.508 489.177 692.59 491.089 693.407 493.513C694.224 495.938 694.632 498.978 694.632 502.634C694.632 506.173 694.295 509.317 693.621 512.065C692.96 514.801 692.001 517.109 690.743 518.988C689.498 520.868 687.982 522.294 686.193 523.267C684.416 524.239 682.407 524.725 680.164 524.725C677.934 524.725 675.944 524.284 674.194 523.403C672.457 522.508 671.031 521.27 669.916 519.688C668.814 518.094 668.107 516.246 667.796 514.146H672.541C672.969 515.974 673.818 517.485 675.088 518.677C676.372 519.857 678.064 520.447 680.164 520.447C683.237 520.447 685.661 519.105 687.437 516.421C689.226 513.738 690.121 509.946 690.121 505.045H689.81C689.084 506.134 688.221 507.074 687.223 507.865C686.225 508.656 685.116 509.265 683.898 509.693C682.679 510.121 681.383 510.335 680.008 510.335C677.727 510.335 675.633 509.771 673.727 508.643C671.834 507.502 670.318 505.94 669.177 503.956C668.049 501.96 667.485 499.678 667.485 497.111C667.485 494.674 668.029 492.444 669.118 490.421C670.22 488.386 671.763 486.765 673.747 485.56C675.743 484.354 678.09 483.77 680.786 483.809ZM680.786 488.088C679.153 488.088 677.681 488.496 676.372 489.313C675.075 490.117 674.045 491.206 673.28 492.58C672.528 493.941 672.152 495.451 672.152 497.111C672.152 498.77 672.515 500.281 673.241 501.642C673.98 502.99 674.985 504.066 676.255 504.87C677.539 505.661 678.997 506.056 680.631 506.056C681.862 506.056 683.01 505.816 684.073 505.337C685.136 504.844 686.063 504.176 686.854 503.334C687.657 502.478 688.286 501.512 688.74 500.436C689.194 499.347 689.421 498.213 689.421 497.033C689.421 495.477 689.045 494.019 688.293 492.658C687.554 491.296 686.53 490.194 685.22 489.352C683.924 488.509 682.446 488.088 680.786 488.088Z" fill="#050C58"/>
</svg>
