<?xml version="1.0" ?><!DOCTYPE svg  PUBLIC '-//W3C//DTD SVG 1.1//EN'  'http://www.w3.org/Graphics/SVG/1.1/DTD/svg11.dtd'><svg xmlns="http://www.w3.org/2000/svg" xmlns:xlink="http://www.w3.org/1999/xlink" xmlns:serif="http://www.serif.com/" width="100%" height="100%" viewBox="0 0 320 320" version="1.1" xml:space="preserve" style="fill-rule:evenodd;clip-rule:evenodd;stroke-linejoin:round;stroke-miterlimit:2;"><g transform="matrix(1,0,0,1,-2107.73,-1793.07)"><g transform="matrix(1,0,0,1,766.592,717.365)"><g transform="matrix(0.963855,0,0,0.963855,-2249.96,-831.596)"><path d="M4047.39,2072.53C4047.39,2058.44 4035.97,2047.03 4021.89,2047.03L3761.64,2047.03C3747.56,2047.03 3736.14,2058.44 3736.14,2072.53L3736.14,2217.12C3736.14,2231.2 3747.56,2242.62 3761.64,2242.62L4021.89,2242.62C4035.97,2242.62 4047.39,2231.2 4047.39,2217.12L4047.39,2072.53ZM3747.39,2184.12L3830.33,2184.12L3830.33,2231.37L3761.64,2231.37C3753.77,2231.37 3747.39,2224.99 3747.39,2217.12L3747.39,2184.12ZM3841.58,2231.37L3941.96,2231.37L3941.96,2184.12L3841.58,2184.12L3841.58,2231.37ZM3953.21,2184.12L4036.14,2184.12L4036.14,2217.12C4036.14,2224.99 4029.76,2231.37 4021.89,2231.37L3953.21,2231.37L3953.21,2184.12ZM3747.39,2116.78L3747.39,2172.87L3776.44,2172.87L3776.44,2116.78L3747.39,2116.78ZM3787.69,2116.78L3787.69,2172.87L3886.14,2172.87L3886.14,2116.78L3787.69,2116.78ZM3897.39,2116.78L3897.39,2172.87L3995.85,2172.87L3995.85,2116.78L3897.39,2116.78ZM4007.1,2116.78L4007.1,2172.87L4036.14,2172.87L4036.14,2116.78L4007.1,2116.78ZM3830.33,2058.28L3830.33,2105.53L3747.39,2105.53L3747.39,2072.53C3747.39,2064.66 3753.77,2058.28 3761.64,2058.28L3830.33,2058.28ZM3841.58,2058.28L3841.58,2105.53L3941.96,2105.53L3941.96,2058.28L3841.58,2058.28ZM3953.21,2058.28L4021.89,2058.28C4029.76,2058.28 4036.14,2064.66 4036.14,2072.53L4036.14,2105.53L3953.21,2105.53L3953.21,2058.28Z"/></g></g><g transform="matrix(1,0,0,1,766.592,717.365)"><g transform="matrix(0.763385,0,0,0.763385,-168.445,-435.537)"><rect x="1977.49" y="1979.66" width="419.185" height="419.185" style="fill:none;"/></g></g></g></svg>